<?xml version="1.0" encoding="UTF-8"?>
<svg xmlns="http://www.w3.org/2000/svg" xmlns:xlink="http://www.w3.org/1999/xlink" width="25" height="25" viewBox="0 0 25 25" version="1.1">
<g id="surface1">
<path style=" stroke:none;fill-rule:nonzero;fill:rgb(36.078431%,41.960784%,75.294118%);fill-opacity:1;" d="M 12.5 0.261719 C 5.597656 0.261719 0 5.878906 0 12.808594 C 0 18.355469 3.582031 23.058594 8.550781 24.71875 C 9.175781 24.832031 9.402344 24.445312 9.402344 24.113281 C 9.402344 23.816406 9.390625 23.027344 9.386719 21.980469 C 5.910156 22.738281 5.175781 20.296875 5.175781 20.296875 C 4.609375 18.847656 3.789062 18.460938 3.789062 18.460938 C 2.652344 17.683594 3.871094 17.699219 3.871094 17.699219 C 5.125 17.785156 5.785156 18.992188 5.785156 18.992188 C 6.902344 20.910156 8.710938 20.355469 9.425781 20.035156 C 9.539062 19.222656 9.859375 18.667969 10.21875 18.355469 C 7.445312 18.039062 4.523438 16.960938 4.523438 12.152344 C 4.523438 10.785156 5.011719 9.664062 5.8125 8.785156 C 5.683594 8.46875 5.253906 7.191406 5.933594 5.464844 C 5.933594 5.464844 6.984375 5.128906 9.371094 6.75 C 10.367188 6.472656 11.4375 6.332031 12.5 6.328125 C 13.5625 6.335938 14.632812 6.472656 15.632812 6.753906 C 18.015625 5.128906 19.066406 5.464844 19.066406 5.464844 C 19.746094 7.195312 19.320312 8.46875 19.191406 8.785156 C 19.992188 9.664062 20.476562 10.785156 20.476562 12.15625 C 20.476562 16.976562 17.554688 18.035156 14.769531 18.347656 C 15.21875 18.734375 15.617188 19.5 15.617188 20.671875 C 15.617188 22.347656 15.601562 23.703125 15.601562 24.113281 C 15.601562 24.449219 15.828125 24.839844 16.460938 24.714844 C 21.421875 23.054688 25 18.351562 25 12.808594 C 25 5.878906 19.402344 0.261719 12.5 0.261719 Z M 12.5 0.261719 "/>
</g>
</svg>
